<svg width="752" height="540" viewBox="0 0 752 540" fill="none" xmlns="http://www.w3.org/2000/svg">
<g clip-path="url(#clip0_6_2)">
<path d="M19.9 538.23C19.9 538.89 20.43 539.42 21.09 539.42H750.38C751.04 539.42 751.57 538.89 751.57 538.23C751.57 537.57 751.04 537.04 750.38 537.04H21.09C20.43 537.04 19.9 537.57 19.9 538.23Z" fill="#1D2F45"/>
<path d="M253.43 95.15H19.53C10.61 95.15 3.35001 87.89 3.35001 78.97C3.35001 70.05 10.61 62.79 19.53 62.79H253.43C262.35 62.79 269.61 70.05 269.61 78.97C269.61 87.89 262.35 95.15 253.43 95.15ZM19.53 64.79C11.71 64.79 5.35001 71.15 5.35001 78.97C5.35001 86.79 11.71 93.15 19.53 93.15H253.43C261.25 93.15 267.61 86.79 267.61 78.97C267.61 71.15 261.25 64.79 253.43 64.79H19.53Z" fill="#1D2F45"/>
<path d="M253.43 284.5H19.53C10.88 284.5 3.85001 277.47 3.85001 268.82C3.85001 260.17 10.88 253.14 19.53 253.14H253.43C262.08 253.14 269.11 260.17 269.11 268.82C269.11 277.47 262.08 284.5 253.43 284.5Z" fill="#1D2F45"/>
<path d="M176.78 31.36H15.68C7.03 31.36 0 24.33 0 15.68C0 7.03 7.03 0 15.68 0H176.78C185.43 0 192.46 7.03 192.46 15.68C192.46 24.33 185.43 31.36 176.78 31.36Z" fill="#E2E3E4"/>
<path d="M42.9528 10.0909H44.929V17.218C44.929 17.9993 44.7443 18.6864 44.375 19.2795C44.0092 19.8725 43.4943 20.3359 42.8303 20.6697C42.1662 21 41.3903 21.1651 40.5025 21.1651C39.6112 21.1651 38.8335 21 38.1694 20.6697C37.5053 20.3359 36.9904 19.8725 36.6246 19.2795C36.2589 18.6864 36.076 17.9993 36.076 17.218V10.0909H38.0522V17.0529C38.0522 17.5075 38.1516 17.9123 38.3505 18.2674C38.5529 18.6225 38.837 18.9013 39.2028 19.1037C39.5685 19.3026 40.0018 19.402 40.5025 19.402C41.0032 19.402 41.4364 19.3026 41.8022 19.1037C42.1715 18.9013 42.4556 18.6225 42.6545 18.2674C42.8533 17.9123 42.9528 17.5075 42.9528 17.0529V10.0909ZM53.4584 14.9808L51.7006 15.1726C51.6508 14.995 51.5638 14.8281 51.4395 14.6719C51.3188 14.5156 51.1555 14.3896 50.9495 14.2937C50.7435 14.1978 50.4914 14.1499 50.1931 14.1499C49.7918 14.1499 49.4545 14.2369 49.181 14.4109C48.9111 14.5849 48.778 14.8104 48.7815 15.0874C48.778 15.3253 48.865 15.5188 49.0425 15.668C49.2236 15.8171 49.5219 15.9396 49.9374 16.0355L51.333 16.3338C52.1072 16.5007 52.6824 16.7653 53.0589 17.1275C53.4388 17.4897 53.6306 17.9638 53.6341 18.5497C53.6306 19.0646 53.4797 19.5192 53.1814 19.9134C52.8866 20.304 52.4765 20.6094 51.9509 20.8295C51.4253 21.0497 50.8216 21.1598 50.1398 21.1598C49.1384 21.1598 48.3323 20.9503 47.7215 20.5312C47.1107 20.1087 46.7467 19.521 46.6295 18.7681L48.5099 18.587C48.5951 18.9563 48.7762 19.2351 49.0532 19.4233C49.3302 19.6115 49.6906 19.7056 50.1345 19.7056C50.5926 19.7056 50.9601 19.6115 51.2371 19.4233C51.5177 19.2351 51.6579 19.0025 51.6579 18.7255C51.6579 18.4911 51.5674 18.2976 51.3863 18.1449C51.2087 17.9922 50.9317 17.875 50.5553 17.7933L49.1597 17.5004C48.3749 17.337 47.7943 17.0618 47.4179 16.6747C47.0415 16.2841 46.855 15.7905 46.8586 15.1939C46.855 14.6896 46.9917 14.2528 47.2687 13.8835C47.5493 13.5107 47.9381 13.223 48.4353 13.0206C48.936 12.8146 49.5131 12.7116 50.1665 12.7116C51.1253 12.7116 51.8799 12.9158 52.4303 13.3242C52.9843 13.7326 53.327 14.2848 53.4584 14.9808ZM58.8463 21.1598C58.026 21.1598 57.3176 20.9893 56.721 20.6484C56.1279 20.304 55.6716 19.8175 55.352 19.1889C55.0324 18.5568 54.8726 17.8129 54.8726 16.957C54.8726 16.1154 55.0324 15.3768 55.352 14.7411C55.6752 14.1019 56.1262 13.6048 56.705 13.2496C57.2838 12.891 57.9639 12.7116 58.7451 12.7116C59.2494 12.7116 59.7252 12.7933 60.1727 12.9567C60.6237 13.1165 61.0214 13.3651 61.3659 13.7024C61.7139 14.0398 61.9873 14.4695 62.1862 14.9915C62.385 15.5099 62.4845 16.1278 62.4845 16.8452V17.4364H55.7781V16.1367H60.6361C60.6325 15.7674 60.5526 15.4389 60.3964 15.1513C60.2401 14.8601 60.0218 14.631 59.7412 14.4641C59.4642 14.2972 59.1411 14.2138 58.7718 14.2138C58.3776 14.2138 58.0313 14.3097 57.733 14.5014C57.4347 14.6896 57.2021 14.9382 57.0352 15.2472C56.8719 15.5526 56.7884 15.8881 56.7849 16.2539V17.3885C56.7849 17.8643 56.8719 18.2727 57.0459 18.6136C57.2199 18.951 57.4632 19.2102 57.7757 19.3913C58.0882 19.5689 58.4539 19.6577 58.873 19.6577C59.1535 19.6577 59.4074 19.6186 59.6347 19.5405C59.8619 19.4588 60.059 19.3398 60.2259 19.1836C60.3928 19.0273 60.5189 18.8338 60.6041 18.603L62.4046 18.8054C62.2909 19.2812 62.0743 19.6967 61.7547 20.0518C61.4387 20.4034 61.0338 20.6768 60.5402 20.8722C60.0466 21.0639 59.482 21.1598 58.8463 21.1598ZM64.1158 21V12.8182H65.9854V14.1818H66.0707C66.2198 13.7095 66.4755 13.3455 66.8377 13.0898C67.2035 12.8306 67.6207 12.701 68.0895 12.701C68.196 12.701 68.315 12.7063 68.4464 12.717C68.5813 12.7241 68.6932 12.7365 68.782 12.7543V14.5281C68.7003 14.4996 68.5707 14.4748 68.3931 14.4535C68.2191 14.4286 68.0504 14.4162 67.8871 14.4162C67.5355 14.4162 67.2195 14.4925 66.9389 14.6452C66.6619 14.7944 66.4435 15.0021 66.2837 15.2685C66.1239 15.5348 66.044 15.842 66.044 16.19V21H64.1158ZM75.8452 10.0909V21H73.869V10.0909H75.8452ZM79.8282 16.206V21H77.8999V12.8182H79.743V14.2085H79.8389C80.0271 13.7504 80.3271 13.3864 80.7391 13.1165C81.1546 12.8466 81.6677 12.7116 82.2785 12.7116C82.8431 12.7116 83.335 12.8324 83.754 13.0739C84.1766 13.3153 84.5033 13.6651 84.7341 14.1232C84.9685 14.5813 85.0839 15.1371 85.0803 15.7905V21H83.1521V16.0888C83.1521 15.5419 83.01 15.114 82.7259 14.805C82.4454 14.4961 82.0566 14.3416 81.5594 14.3416C81.222 14.3416 80.922 14.4162 80.6592 14.5653C80.3999 14.7109 80.1958 14.9222 80.0466 15.1992C79.901 15.4762 79.8282 15.8118 79.8282 16.206ZM91.1847 12.8182V14.3097H86.3481V12.8182H91.1847ZM87.5573 21V12.0458C87.5573 11.4954 87.6709 11.0373 87.8982 10.6715C88.129 10.3058 88.4379 10.0323 88.825 9.85121C89.2121 9.6701 89.6418 9.57954 90.1141 9.57954C90.4479 9.57954 90.7444 9.60618 91.0036 9.65945C91.2629 9.71271 91.4546 9.76065 91.5789 9.80327L91.1954 11.2947C91.1137 11.2699 91.0107 11.245 90.8865 11.2202C90.7622 11.1918 90.6237 11.1776 90.471 11.1776C90.1123 11.1776 89.8584 11.2646 89.7093 11.4386C89.5637 11.609 89.4909 11.854 89.4909 12.1737V21H87.5573ZM95.9561 21.1598C95.1571 21.1598 94.4647 20.984 93.8787 20.6325C93.2928 20.2809 92.8382 19.7891 92.5151 19.157C92.1955 18.5249 92.0357 17.7862 92.0357 16.9411C92.0357 16.0959 92.1955 15.3555 92.5151 14.7198C92.8382 14.0842 93.2928 13.5906 93.8787 13.239C94.4647 12.8874 95.1571 12.7116 95.9561 12.7116C96.7551 12.7116 97.4476 12.8874 98.0336 13.239C98.6195 13.5906 99.0723 14.0842 99.3919 14.7198C99.715 15.3555 99.8766 16.0959 99.8766 16.9411C99.8766 17.7862 99.715 18.5249 99.3919 19.157C99.0723 19.7891 98.6195 20.2809 98.0336 20.6325C97.4476 20.984 96.7551 21.1598 95.9561 21.1598ZM95.9668 19.6151C96.4 19.6151 96.7623 19.4961 97.0534 19.2582C97.3446 19.0167 97.5613 18.6935 97.7033 18.2887C97.8489 17.8839 97.9217 17.4329 97.9217 16.9357C97.9217 16.435 97.8489 15.9822 97.7033 15.5774C97.5613 15.169 97.3446 14.8441 97.0534 14.6026C96.7623 14.3612 96.4 14.2404 95.9668 14.2404C95.5229 14.2404 95.1536 14.3612 94.8588 14.6026C94.5676 14.8441 94.3493 15.169 94.2037 15.5774C94.0616 15.9822 93.9906 16.435 93.9906 16.9357C93.9906 17.4329 94.0616 17.8839 94.2037 18.2887C94.3493 18.6935 94.5676 19.0167 94.8588 19.2582C95.1536 19.4961 95.5229 19.6151 95.9668 19.6151ZM101.513 21V12.8182H103.383V14.1818H103.468C103.617 13.7095 103.873 13.3455 104.235 13.0898C104.601 12.8306 105.018 12.701 105.487 12.701C105.593 12.701 105.712 12.7063 105.844 12.717C105.979 12.7241 106.091 12.7365 106.179 12.7543V14.5281C106.098 14.4996 105.968 14.4748 105.791 14.4535C105.617 14.4286 105.448 14.4162 105.285 14.4162C104.933 14.4162 104.617 14.4925 104.336 14.6452C104.059 14.7944 103.841 15.0021 103.681 15.2685C103.521 15.5348 103.441 15.842 103.441 16.19V21H101.513ZM107.46 21V12.8182H109.304V14.2085H109.399C109.57 13.7397 109.852 13.3739 110.246 13.1112C110.641 12.8448 111.111 12.7116 111.658 12.7116C112.212 12.7116 112.679 12.8466 113.059 13.1165C113.442 13.3828 113.712 13.7468 113.869 14.2085H113.954C114.135 13.7539 114.44 13.3917 114.87 13.1218C115.303 12.8484 115.816 12.7116 116.409 12.7116C117.162 12.7116 117.777 12.9496 118.252 13.4254C118.728 13.9013 118.966 14.5955 118.966 15.5082V21H117.033V15.8065C117.033 15.2987 116.898 14.9276 116.628 14.6932C116.358 14.4553 116.028 14.3363 115.637 14.3363C115.172 14.3363 114.808 14.4819 114.545 14.7731C114.286 15.0607 114.156 15.4354 114.156 15.897V21H112.265V15.7266C112.265 15.304 112.137 14.9666 111.882 14.7145C111.63 14.4624 111.299 14.3363 110.891 14.3363C110.614 14.3363 110.362 14.4073 110.134 14.5494C109.907 14.6879 109.726 14.8849 109.591 15.1406C109.456 15.3928 109.389 15.6875 109.389 16.0249V21H107.46ZM123.277 21.1651C122.758 21.1651 122.291 21.0728 121.876 20.8881C121.464 20.6999 121.137 20.4229 120.896 20.0572C120.658 19.6914 120.539 19.2404 120.539 18.7042C120.539 18.2425 120.624 17.8608 120.795 17.5589C120.965 17.2571 121.198 17.0156 121.492 16.8345C121.787 16.6534 122.119 16.5167 122.488 16.4244C122.861 16.3285 123.247 16.2592 123.644 16.2166C124.124 16.1669 124.513 16.1225 124.811 16.0835C125.109 16.0408 125.326 15.9769 125.461 15.8917C125.599 15.8029 125.669 15.6662 125.669 15.4815V15.4496C125.669 15.0483 125.55 14.7376 125.312 14.5174C125.074 14.2972 124.731 14.1871 124.284 14.1871C123.811 14.1871 123.437 14.2901 123.16 14.4961C122.886 14.7021 122.702 14.9453 122.606 15.2259L120.805 14.9702C120.947 14.473 121.182 14.0575 121.508 13.7237C121.835 13.3864 122.235 13.1342 122.707 12.9673C123.179 12.7969 123.701 12.7116 124.273 12.7116C124.667 12.7116 125.059 12.7578 125.45 12.8501C125.841 12.9425 126.198 13.0952 126.521 13.3082C126.844 13.5178 127.103 13.8036 127.298 14.1658C127.497 14.5281 127.597 14.9808 127.597 15.5241V21H125.743V19.8761H125.679C125.562 20.1033 125.397 20.3164 125.184 20.5153C124.974 20.7106 124.71 20.8686 124.39 20.9893C124.074 21.1065 123.703 21.1651 123.277 21.1651ZM123.778 19.7482C124.165 19.7482 124.5 19.6719 124.784 19.5192C125.068 19.3629 125.287 19.157 125.439 18.9013C125.596 18.6456 125.674 18.3668 125.674 18.065V17.1009C125.613 17.1506 125.51 17.1967 125.365 17.2393C125.223 17.282 125.063 17.3192 124.885 17.3512C124.708 17.3832 124.532 17.4116 124.358 17.4364C124.184 17.4613 124.033 17.4826 123.905 17.5004C123.618 17.5394 123.36 17.6033 123.133 17.6921C122.906 17.7809 122.726 17.9052 122.595 18.065C122.464 18.2212 122.398 18.4237 122.398 18.6722C122.398 19.0273 122.528 19.2955 122.787 19.4766C123.046 19.6577 123.376 19.7482 123.778 19.7482ZM133.621 12.8182V14.3097H128.918V12.8182H133.621ZM130.079 10.858H132.007V18.5391C132.007 18.7983 132.046 18.9972 132.124 19.1357C132.206 19.2706 132.313 19.3629 132.444 19.4126C132.575 19.4624 132.721 19.4872 132.881 19.4872C133.002 19.4872 133.112 19.4783 133.211 19.4606C133.314 19.4428 133.392 19.4268 133.445 19.4126L133.77 20.9201C133.667 20.9556 133.52 20.9947 133.328 21.0373C133.14 21.0799 132.909 21.1048 132.636 21.1119C132.153 21.1261 131.718 21.0533 131.331 20.8935C130.944 20.7301 130.637 20.478 130.409 20.1371C130.186 19.7962 130.075 19.37 130.079 18.8587V10.858ZM135.234 21V12.8182H137.162V21H135.234ZM136.203 11.657C135.898 11.657 135.635 11.5558 135.415 11.3533C135.195 11.1474 135.085 10.9006 135.085 10.6129C135.085 10.3217 135.195 10.0749 135.415 9.87251C135.635 9.66655 135.898 9.56357 136.203 9.56357C136.512 9.56357 136.775 9.66655 136.992 9.87251C137.212 10.0749 137.322 10.3217 137.322 10.6129C137.322 10.9006 137.212 11.1474 136.992 11.3533C136.775 11.5558 136.512 11.657 136.203 11.657ZM142.714 21.1598C141.915 21.1598 141.222 20.984 140.637 20.6325C140.051 20.2809 139.596 19.7891 139.273 19.157C138.953 18.5249 138.794 17.7862 138.794 16.9411C138.794 16.0959 138.953 15.3555 139.273 14.7198C139.596 14.0842 140.051 13.5906 140.637 13.239C141.222 12.8874 141.915 12.7116 142.714 12.7116C143.513 12.7116 144.205 12.8874 144.791 13.239C145.377 13.5906 145.83 14.0842 146.15 14.7198C146.473 15.3555 146.634 16.0959 146.634 16.9411C146.634 17.7862 146.473 18.5249 146.15 19.157C145.83 19.7891 145.377 20.2809 144.791 20.6325C144.205 20.984 143.513 21.1598 142.714 21.1598ZM142.725 19.6151C143.158 19.6151 143.52 19.4961 143.811 19.2582C144.102 19.0167 144.319 18.6935 144.461 18.2887C144.607 17.8839 144.68 17.4329 144.68 16.9357C144.68 16.435 144.607 15.9822 144.461 15.5774C144.319 15.169 144.102 14.8441 143.811 14.6026C143.52 14.3612 143.158 14.2404 142.725 14.2404C142.281 14.2404 141.911 14.3612 141.617 14.6026C141.325 14.8441 141.107 15.169 140.961 15.5774C140.819 15.9822 140.748 16.435 140.748 16.9357C140.748 17.4329 140.819 17.8839 140.961 18.2887C141.107 18.6935 141.325 19.0167 141.617 19.2582C141.911 19.4961 142.281 19.6151 142.725 19.6151ZM150.199 16.206V21H148.271V12.8182H150.114V14.2085H150.21C150.398 13.7504 150.698 13.3864 151.11 13.1165C151.526 12.8466 152.039 12.7116 152.65 12.7116C153.214 12.7116 153.706 12.8324 154.125 13.0739C154.548 13.3153 154.874 13.6651 155.105 14.1232C155.34 14.5813 155.455 15.1371 155.451 15.7905V21H153.523V16.0888C153.523 15.5419 153.381 15.114 153.097 14.805C152.816 14.4961 152.428 14.3416 151.93 14.3416C151.593 14.3416 151.293 14.4162 151.03 14.5653C150.771 14.7109 150.567 14.9222 150.418 15.1992C150.272 15.4762 150.199 15.8118 150.199 16.206Z" fill="black"/>
<path d="M253.43 158.43H19.53C10.61 158.43 3.35001 151.17 3.35001 142.25C3.35001 133.33 10.61 126.07 19.53 126.07H253.43C262.35 126.07 269.61 133.33 269.61 142.25C269.61 151.17 262.35 158.43 253.43 158.43ZM19.53 128.07C11.71 128.07 5.35001 134.43 5.35001 142.25C5.35001 150.07 11.71 156.43 19.53 156.43H253.43C261.25 156.43 267.61 150.07 267.61 142.25C267.61 134.43 261.25 128.07 253.43 128.07H19.53Z" fill="#1D2F45"/>
<path d="M253.43 221.72H19.53C10.61 221.72 3.35001 214.46 3.35001 205.54C3.35001 196.62 10.61 189.36 19.53 189.36H253.43C262.35 189.36 269.61 196.62 269.61 205.54C269.61 214.46 262.35 221.72 253.43 221.72ZM19.53 191.36C11.71 191.36 5.35001 197.72 5.35001 205.54C5.35001 213.36 11.71 219.72 19.53 219.72H253.43C261.25 219.72 267.61 213.36 267.61 205.54C267.61 197.72 261.25 191.36 253.43 191.36H19.53Z" fill="#1D2F45"/>
<path d="M11.49 51.1699H72.79C74.25 51.1699 75.44 52.3499 75.44 53.8199C75.44 55.2799 74.25 56.4699 72.79 56.4699H11.49C10.03 56.4699 8.84 55.2899 8.84 53.8199C8.84 52.3599 10.03 51.1699 11.49 51.1699Z" fill="#1D2F45"/>
<path d="M11.49 115.95H72.79C74.25 115.95 75.44 117.13 75.44 118.59C75.44 120.05 74.25 121.24 72.79 121.24H11.49C10.03 121.24 8.84 120.06 8.84 118.6C8.84 117.14 10.03 115.95 11.49 115.95Z" fill="#1D2F45"/>
<path d="M11.49 180.74H72.79C74.25 180.74 75.44 181.92 75.44 183.39C75.44 184.85 74.25 186.03 72.79 186.03H11.49C10.03 186.03 8.84 184.85 8.84 183.38C8.84 181.92 10.03 180.74 11.49 180.74Z" fill="#1D2F45"/>
<path d="M447.08 132.26L424.72 139.62V107.43H445.01L447.08 132.26Z" fill="#9F616A"/>
<path d="M427.49 116.34C439.795 116.34 449.77 106.365 449.77 94.0598C449.77 81.7549 439.795 71.7798 427.49 71.7798C415.185 71.7798 405.21 81.7549 405.21 94.0598C405.21 106.365 415.185 116.34 427.49 116.34Z" fill="#9F616A"/>
<path d="M433.61 91.8499C429.88 91.7399 427.43 87.9699 425.98 84.5299C424.53 81.0899 423.04 77.1399 419.58 75.7199C416.75 74.5599 411.76 82.4099 409.53 80.3199C407.2 78.1399 409.47 66.9499 411.94 64.9399C414.41 62.9299 417.79 62.5399 420.97 62.3899C428.73 62.0299 436.54 62.6599 444.15 64.2499C448.86 65.2299 453.7 66.7099 457.1 70.1099C461.4 74.4299 462.5 80.9399 462.81 87.0299C463.13 93.2599 462.77 99.7799 459.74 105.23C456.71 110.68 450.37 114.7 444.29 113.31C443.68 110.01 444.3 106.62 444.54 103.26C444.77 99.9099 444.53 96.2899 442.48 93.6199C440.44 90.9499 436.06 89.8899 433.68 92.2599" fill="#2F2E43"/>
<path d="M461.02 99.5696C463.25 97.9396 465.92 96.5696 468.66 96.9096C471.62 97.2696 474.13 99.7096 474.89 102.6C475.65 105.49 474.8 108.67 472.96 111.03C471.13 113.39 468.4 114.95 465.52 115.73C463.85 116.18 462.02 116.37 460.43 115.69C458.09 114.68 456.82 111.69 457.74 109.31" fill="#2F2E43"/>
<path d="M375.76 309.2C374.27 316.52 377 323.21 381.84 324.14C386.68 325.07 391.81 319.88 393.29 312.56C393.92 309.64 393.82 306.62 393 303.74L411.43 188.99L388.38 184.65L379.48 301.15C377.59 303.51 376.32 306.27 375.76 309.21V309.2Z" fill="#9F616A"/>
<path d="M424.48 124.85H408.75C397.63 126.54 394.61 132.47 392.08 143.43C388.22 160.15 383.29 182.41 384.27 182.74C385.84 183.26 412.62 195.86 426.27 192.98L424.48 124.85Z" fill="#E2E3E4"/>
<path d="M439.69 490.36H418.75V520.07H439.69V490.36Z" fill="#9F616A"/>
<path d="M398.36 538.05C396.16 538.05 394.2 538 392.72 537.86C387.16 537.35 381.85 533.24 379.18 530.84C377.98 529.76 377.6 528.04 378.22 526.56C378.67 525.5 379.56 524.7 380.67 524.39L395.37 520.19L419.17 504.13L419.44 504.61C419.54 504.79 421.88 509 422.66 511.84C422.96 512.92 422.88 513.82 422.43 514.52C422.12 515 421.68 515.28 421.33 515.44C421.76 515.89 423.11 516.81 427.27 517.47C433.34 518.43 434.62 512.14 434.67 511.88L434.71 511.67L434.89 511.55C437.78 509.69 439.56 508.84 440.17 509.02C440.55 509.13 441.19 509.33 442.92 526.46C443.09 527 444.3 530.94 443.48 534.71C442.59 538.81 424.67 537.4 421.08 537.08C420.98 537.09 407.56 538.05 398.37 538.05H398.36Z" fill="#2F2E43"/>
<path d="M499.316 467.018L481.548 478.099L497.27 503.308L515.038 492.227L499.316 467.018Z" fill="#9F616A"/>
<path d="M475.72 533.98C473.26 533.98 471 533.68 469.39 533.4C467.81 533.12 466.57 531.86 466.31 530.28C466.13 529.14 466.46 527.99 467.24 527.14L477.49 515.8L489.19 489.58L489.67 489.84C489.85 489.94 494.06 492.27 496.23 494.27C497.06 495.03 497.47 495.84 497.45 496.67C497.44 497.25 497.22 497.71 497 498.04C497.6 498.2 499.23 498.26 503.11 496.62C508.77 494.23 506.53 488.21 506.43 487.96L506.35 487.76L506.44 487.57C507.91 484.46 508.96 482.8 509.58 482.63C509.97 482.52 510.61 482.35 521.14 495.98C521.57 496.34 524.68 499.05 525.98 502.68C527.39 506.63 511.44 514.92 508.23 516.54C508.13 516.62 491.44 528.75 484.58 532.2C481.86 533.57 478.64 533.99 475.71 533.99L475.72 533.98Z" fill="#2F2E43"/>
<path d="M455.11 241.91H396.48L391.16 296.45L414.44 497.97H444.37L432.4 381.58L480.95 486.66L507.55 468.04L469.64 369.94C469.64 369.94 483.18 284.48 472.54 263.19C461.9 241.91 455.11 241.91 455.11 241.91Z" fill="#2F2E43"/>
<path d="M484.28 245.23H391.16L419.1 124.85H459.67L484.28 245.23Z" fill="#E2E3E4"/>
<path d="M492.66 309.2C494.15 316.52 491.42 323.21 486.58 324.14C481.74 325.07 476.61 319.88 475.13 312.56C474.5 309.64 474.6 306.62 475.42 303.74L456.99 188.99L480.04 184.65L488.94 301.15C490.83 303.51 492.1 306.27 492.66 309.21V309.2Z" fill="#9F616A"/>
<path d="M443.94 124.85H459.67C470.79 126.54 473.81 132.47 476.34 143.43C480.2 160.15 485.13 182.41 484.15 182.74C482.58 183.26 455.8 195.86 442.15 192.98L443.94 124.85Z" fill="#E2E3E4"/>
</g>
<defs>
<clipPath id="clip0_6_2">
<rect width="751.57" height="539.42" fill="white"/>
</clipPath>
</defs>
</svg>
