<svg width="838" height="607" viewBox="0 0 838 607" fill="none" xmlns="http://www.w3.org/2000/svg">
<g clip-path="url(#clip0_1_2)">
<rect width="518" height="314" rx="10" fill="#1D2F45"/>
<path d="M510 0H9C6.61415 0.00358921 4.32705 0.952949 2.64 2.64C0.952949 4.32705 0.00358921 6.61415 0 9V305C0.00358921 307.386 0.952949 309.673 2.64 311.36C4.32705 313.047 6.61415 313.996 9 314H510C512.386 313.996 514.673 313.047 516.36 311.36C518.047 309.673 518.996 307.386 519 305V9C518.996 6.61415 518.047 4.32705 516.36 2.64C514.673 0.952949 512.386 0.00358921 510 0ZM517 305C516.998 306.856 516.26 308.635 514.947 309.947C513.635 311.26 511.856 311.998 510 312H9C7.14412 311.998 5.36483 311.26 4.05252 309.947C2.74021 308.635 2.00206 306.856 2 305V9C2.00206 7.14412 2.74021 5.36483 4.05252 4.05252C5.36483 2.74021 7.14412 2.00206 9 2H510C511.856 2.00206 513.635 2.74021 514.947 4.05252C516.26 5.36483 516.998 7.14412 517 9V305Z" fill="white"/>
<path d="M518 34H1V36H518V34Z" fill="#E90404"/>
<path d="M18 22.5C20.7614 22.5 23 20.2614 23 17.5C23 14.7386 20.7614 12.5 18 12.5C15.2386 12.5 13 14.7386 13 17.5C13 20.2614 15.2386 22.5 18 22.5Z" fill="#CCCCCC"/>
<path d="M33 22.5C35.7614 22.5 38 20.2614 38 17.5C38 14.7386 35.7614 12.5 33 12.5C30.2386 12.5 28 14.7386 28 17.5C28 20.2614 30.2386 22.5 33 22.5Z" fill="#CCCCCC"/>
<path d="M48 22.5C50.7614 22.5 53 20.2614 53 17.5C53 14.7386 50.7614 12.5 48 12.5C45.2386 12.5 43 14.7386 43 17.5C43 20.2614 45.2386 22.5 48 22.5Z" fill="#CCCCCC"/>
<path d="M380.5 433.5H138.5C136.246 433.497 134.086 432.601 132.492 431.008C130.899 429.414 130.003 427.254 130 425V154C130.003 151.746 130.899 149.586 132.492 147.992C134.086 146.399 136.246 145.503 138.5 145.5H380.5C382.754 145.503 384.914 146.399 386.508 147.992C388.101 149.586 388.997 151.746 389 154V425C388.997 427.254 388.101 429.414 386.508 431.008C384.914 432.601 382.754 433.497 380.5 433.5Z" fill="#686E75"/>
<path d="M330.5 284.5H188.5C185.185 284.5 182.005 283.183 179.661 280.839C177.317 278.495 176 275.315 176 272C176 268.685 177.317 265.505 179.661 263.161C182.005 260.817 185.185 259.5 188.5 259.5H330.5C333.815 259.5 336.995 260.817 339.339 263.161C341.683 265.505 343 268.685 343 272C343 275.315 341.683 278.495 339.339 280.839C336.995 283.183 333.815 284.5 330.5 284.5Z" fill="white"/>
<path d="M330.5 331H188.5C185.185 331 182.005 329.683 179.661 327.339C177.317 324.995 176 321.815 176 318.5C176 315.185 177.317 312.005 179.661 309.661C182.005 307.317 185.185 306 188.5 306H330.5C333.815 306 336.995 307.317 339.339 309.661C341.683 312.005 343 315.185 343 318.5C343 321.815 341.683 324.995 339.339 327.339C336.995 329.683 333.815 331 330.5 331Z" fill="white"/>
<path d="M330.5 378H188.5C185.185 378 182.005 376.683 179.661 374.339C177.317 371.995 176 368.815 176 365.5C176 362.185 177.317 359.005 179.661 356.661C182.005 354.317 185.185 353 188.5 353H330.5C333.815 353 336.995 354.317 339.339 356.661C341.683 359.005 343 362.185 343 365.5C343 368.815 341.683 371.995 339.339 374.339C336.995 376.683 333.815 378 330.5 378Z" fill="white"/>
<path d="M287 223H232C228.685 223 225.505 221.683 223.161 219.339C220.817 216.995 219.5 213.815 219.5 210.5C219.5 207.185 220.817 204.005 223.161 201.661C225.505 199.317 228.685 198 232 198H287C290.315 198 293.495 199.317 295.839 201.661C298.183 204.005 299.5 207.185 299.5 210.5C299.5 213.815 298.183 216.995 295.839 219.339C293.495 221.683 290.315 223 287 223Z" fill="white"/>
<path d="M465.5 71H53.5C47.701 71 43 75.701 43 81.5V81.5C43 87.299 47.701 92 53.5 92H465.5C471.299 92 476 87.299 476 81.5C476 75.701 471.299 71 465.5 71Z" fill="#CCCCCC"/>
<path d="M739.617 476.023C740.886 475.392 742 474.49 742.882 473.382C743.765 472.273 744.393 470.985 744.723 469.607C745.054 468.229 745.078 466.796 744.795 465.408C744.511 464.02 743.927 462.711 743.083 461.573L765.665 336.598L744.592 336.32L728.91 459.904C727.093 461.449 725.905 463.607 725.572 465.969C725.239 468.331 725.784 470.733 727.104 472.719C728.424 474.706 730.427 476.14 732.733 476.749C735.039 477.358 737.489 477.099 739.617 476.023Z" fill="#A0616A"/>
<path d="M674.215 470.097L666.215 508.097L667.215 593.097H682.215L689.215 510.097L700.215 475.097L674.215 470.097Z" fill="#A0616A"/>
<path d="M724.215 470.097L716.215 508.097L717.215 593.097H732.215L739.215 510.097L750.215 475.097L724.215 470.097Z" fill="#A0616A"/>
<path d="M662.308 590.733L685.928 591.805L685.253 606.677L646.762 604.93C646.85 602.977 647.323 601.06 648.152 599.29C648.981 597.52 650.151 595.93 651.595 594.612C653.038 593.293 654.728 592.272 656.566 591.607C658.404 590.941 660.355 590.645 662.308 590.733Z" fill="#2F2E41"/>
<path d="M712.308 590.733L735.928 591.805L735.253 606.677L696.762 604.93C696.85 602.977 697.323 601.06 698.152 599.29C698.981 597.52 700.151 595.93 701.595 594.612C703.038 593.293 704.728 592.272 706.566 591.607C708.404 590.941 710.355 590.645 712.308 590.733Z" fill="#2F2E41"/>
<path d="M710.715 283.741C724.279 283.741 735.276 272.745 735.276 259.18C735.276 245.615 724.279 234.619 710.715 234.619C697.15 234.619 686.154 245.615 686.154 259.18C686.154 272.745 697.15 283.741 710.715 283.741Z" fill="#A0616A"/>
<path d="M764.993 319.929C756.866 307.177 729.827 275.402 689.715 301.597C689.715 301.597 699.215 381.098 676.215 424.098C676.215 424.098 729.215 440.098 758.215 425.098C758.215 425.098 748.215 358.097 758.215 345.097C761.549 340.943 764.25 336.317 766.228 331.371C766.922 329.499 767.172 327.49 766.958 325.505C766.744 323.519 766.071 321.61 764.993 319.929Z" fill="#CCCCCC"/>
<path d="M755.215 319.097L765.028 323.186C765.682 323.459 766.244 323.912 766.648 324.492C767.053 325.073 767.284 325.757 767.313 326.464L768.215 348.098L746.215 346.098L755.215 319.097Z" fill="#CCCCCC"/>
<path d="M680.215 422.098C680.215 422.098 658.215 463.098 662.215 501.098L693.215 506.098L715.215 453.098L710.215 507.098L742.215 508.098C742.215 508.098 763.215 430.098 756.215 423.098L680.215 422.098Z" fill="#2F2E41"/>
<path d="M674.617 466.023C675.886 465.392 677 464.49 677.882 463.382C678.765 462.273 679.393 460.985 679.723 459.607C680.054 458.229 680.078 456.796 679.795 455.408C679.511 454.02 678.927 452.711 678.083 451.573L700.665 326.598L679.592 326.32L663.91 449.904C662.093 451.449 660.905 453.607 660.572 455.969C660.239 458.331 660.784 460.733 662.104 462.719C663.424 464.706 665.427 466.14 667.733 466.749C670.039 467.358 672.489 467.099 674.617 466.023Z" fill="#A0616A"/>
<path d="M699.215 302.097L690.215 301.097C690.215 301.097 682.215 299.097 679.215 310.097C676.215 321.097 676.215 343.097 676.215 343.097L704.215 342.097L699.215 302.097Z" fill="#CCCCCC"/>
<path d="M714.649 271.005C715.531 267.943 715.276 263.8 712.308 262.642C710.761 262.038 709.036 262.514 707.384 262.683C704.152 263.001 700.917 262.11 698.303 260.184C695.233 257.901 693.336 254.412 691.535 251.036L688.811 245.931C688.205 244.866 687.688 243.754 687.266 242.604C685.75 238.097 687.396 232.878 690.765 229.522C694.286 226.247 698.919 224.43 703.728 224.44C708.499 224.474 713.213 225.484 717.579 227.407C725.34 230.571 732.369 235.293 738.232 241.282C742.064 245.202 745.553 250.309 744.752 255.732C744.129 259.954 741.052 263.334 738.117 266.432L727.472 277.669C725.587 279.659 723.573 281.73 720.94 282.495C718.308 283.26 714.917 282.136 714.199 279.491C714.199 279.491 713.767 274.066 714.649 271.005Z" fill="#2F2E41"/>
<path d="M837.5 605.999C837.499 606.264 837.393 606.518 837.206 606.705C837.019 606.893 836.765 606.998 836.5 606.999H548.5C548.234 606.999 547.98 606.894 547.793 606.706C547.605 606.519 547.5 606.264 547.5 605.999C547.5 605.734 547.605 605.48 547.793 605.292C547.98 605.105 548.234 604.999 548.5 604.999H836.5C836.765 605 837.019 605.106 837.206 605.293C837.393 605.48 837.499 605.734 837.5 605.999Z" fill="black"/>
<path d="M63.4137 79.7717H61.4215C61.3647 79.445 61.2599 79.1555 61.1072 78.9034C60.9545 78.6477 60.7646 78.4311 60.5373 78.2536C60.31 78.076 60.0508 77.9428 59.7596 77.854C59.4719 77.7617 59.1612 77.7156 58.8274 77.7156C58.2344 77.7156 57.7088 77.8647 57.2507 78.163C56.7926 78.4577 56.4339 78.891 56.1747 79.4627C55.9155 80.0309 55.7859 80.7251 55.7859 81.5455C55.7859 82.38 55.9155 83.0831 56.1747 83.6548C56.4375 84.223 56.7962 84.6527 57.2507 84.9439C57.7088 85.2315 58.2326 85.3754 58.8221 85.3754C59.1488 85.3754 59.4542 85.3327 59.7383 85.2475C60.0259 85.1587 60.2834 85.0291 60.5107 84.8587C60.7415 84.6882 60.935 84.4787 61.0913 84.2301C61.2511 83.9815 61.3612 83.6974 61.4215 83.3778L63.4137 83.3885C63.3391 83.907 63.1776 84.3935 62.929 84.848C62.6839 85.3026 62.3626 85.7038 61.9648 86.0518C61.5671 86.3963 61.1019 86.6662 60.5692 86.8615C60.0366 87.0533 59.4453 87.1491 58.7955 87.1491C57.8366 87.1491 56.9808 86.9272 56.228 86.4833C55.4751 86.0394 54.8821 85.3984 54.4489 84.5604C54.0156 83.7223 53.799 82.7173 53.799 81.5455C53.799 80.37 54.0174 79.3651 54.4542 78.5305C54.891 77.6925 55.4858 77.0515 56.2386 76.6076C56.9915 76.1637 57.8438 75.9418 58.7955 75.9418C59.4027 75.9418 59.9673 76.027 60.4893 76.1974C61.0114 76.3679 61.4766 76.6183 61.8849 76.9485C62.2933 77.2752 62.6289 77.6765 62.8917 78.1523C63.158 78.6246 63.332 79.1644 63.4137 79.7717ZM71.1521 79.0898C71.1024 78.6246 70.8928 78.2624 70.5235 78.0032C70.1578 77.744 69.6819 77.6143 69.096 77.6143C68.684 77.6143 68.3307 77.6765 68.036 77.8008C67.7412 77.9251 67.5157 78.0937 67.3595 78.3068C67.2032 78.5199 67.1233 78.7631 67.1198 79.0366C67.1198 79.2638 67.1713 79.4609 67.2742 79.6278C67.3808 79.7947 67.5246 79.9368 67.7057 80.054C67.8868 80.1676 68.0874 80.2635 68.3076 80.3416C68.5278 80.4197 68.7497 80.4854 68.9735 80.5387L69.9962 80.7944C70.4081 80.8903 70.8041 81.0199 71.184 81.1832C71.5676 81.3466 71.9102 81.5526 72.2121 81.8011C72.5175 82.0497 72.759 82.3498 72.9365 82.7013C73.1141 83.0529 73.2029 83.4648 73.2029 83.9371C73.2029 84.5763 73.0395 85.1392 72.7128 85.6257C72.3861 86.1087 71.9138 86.4869 71.2959 86.7603C70.6816 87.0302 69.9376 87.1651 69.064 87.1651C68.2153 87.1651 67.4784 87.0337 66.8534 86.771C66.232 86.5082 65.7455 86.1246 65.3939 85.6204C65.0459 85.1161 64.8577 84.5018 64.8293 83.7773H66.7735C66.8019 84.1573 66.9191 84.4734 67.1251 84.7255C67.3311 84.9776 67.5992 85.1658 67.9294 85.2901C68.2632 85.4144 68.6361 85.4766 69.048 85.4766C69.4777 85.4766 69.8541 85.4126 70.1773 85.2848C70.504 85.1534 70.7597 84.9723 70.9443 84.7415C71.129 84.5071 71.2231 84.2337 71.2267 83.9212C71.2231 83.6371 71.1396 83.4027 70.9763 83.218C70.8129 83.0298 70.5839 82.8736 70.2892 82.7493C69.998 82.6214 69.657 82.5078 69.2664 82.4084L68.0253 82.0888C67.1269 81.858 66.4166 81.5082 65.8946 81.0394C65.3762 80.5671 65.1169 79.9403 65.1169 79.1591C65.1169 78.5163 65.2909 77.9535 65.6389 77.4705C65.9905 76.9876 66.4681 76.6129 67.0718 76.3466C67.6755 76.0767 68.3591 75.9418 69.1226 75.9418C69.8968 75.9418 70.575 76.0767 71.1574 76.3466C71.7433 76.6129 72.2032 76.984 72.537 77.4599C72.8708 77.9322 73.0431 78.4755 73.0537 79.0898H71.1521ZM74.9647 87V76.0909H82.0598V77.7475H76.9409V80.7092H81.6923V82.3658H76.9409V85.3434H82.1025V87H74.9647ZM89.1976 87H87.0882L90.9288 76.0909H93.3684L97.2143 87H95.1049L92.1912 78.3281H92.106L89.1976 87ZM89.2669 82.7227H95.0197V84.31H89.2669V82.7227ZM100.494 76.0909V87H98.566V76.0909H100.494ZM107.692 83.5589V78.8182H109.62V87H107.751V85.5458H107.665C107.481 86.0039 107.177 86.3786 106.754 86.6697C106.335 86.9609 105.819 87.1065 105.204 87.1065C104.668 87.1065 104.194 86.9876 103.782 86.7496C103.374 86.5082 103.054 86.1584 102.823 85.7003C102.593 85.2386 102.477 84.6811 102.477 84.0277V78.8182H104.405V83.7294C104.405 84.2479 104.547 84.6598 104.831 84.9652C105.116 85.2706 105.488 85.4233 105.95 85.4233C106.234 85.4233 106.509 85.354 106.776 85.2156C107.042 85.0771 107.26 84.8711 107.431 84.5977C107.605 84.3207 107.692 83.9744 107.692 83.5589ZM111.603 87V78.8182H113.446V80.2085H113.542C113.712 79.7397 113.995 79.3739 114.389 79.1112C114.783 78.8448 115.254 78.7116 115.801 78.7116C116.354 78.7116 116.821 78.8466 117.201 79.1165C117.585 79.3828 117.855 79.7468 118.011 80.2085H118.096C118.277 79.7539 118.583 79.3917 119.013 79.1218C119.446 78.8484 119.959 78.7116 120.552 78.7116C121.305 78.7116 121.919 78.9496 122.395 79.4254C122.871 79.9013 123.109 80.5955 123.109 81.5082V87H121.175V81.8065C121.175 81.2987 121.04 80.9276 120.77 80.6932C120.5 80.4553 120.17 80.3363 119.78 80.3363C119.314 80.3363 118.95 80.4819 118.688 80.7731C118.428 81.0607 118.299 81.4354 118.299 81.897V87H116.408V81.7266C116.408 81.304 116.28 80.9666 116.024 80.7145C115.772 80.4624 115.442 80.3363 115.033 80.3363C114.756 80.3363 114.504 80.4073 114.277 80.5494C114.05 80.6879 113.869 80.8849 113.734 81.1406C113.599 81.3928 113.531 81.6875 113.531 82.0249V87H111.603ZM126.993 82.206V87H125.065V78.8182H126.908V80.2085H127.004C127.192 79.7504 127.492 79.3864 127.904 79.1165C128.32 78.8466 128.833 78.7116 129.444 78.7116C130.008 78.7116 130.5 78.8324 130.919 79.0739C131.342 79.3153 131.668 79.6651 131.899 80.1232C132.134 80.5813 132.249 81.1371 132.245 81.7905V87H130.317V82.0888C130.317 81.5419 130.175 81.114 129.891 80.805C129.61 80.4961 129.222 80.3416 128.724 80.3416C128.387 80.3416 128.087 80.4162 127.824 80.5653C127.565 80.7109 127.361 80.9222 127.212 81.1992C127.066 81.4762 126.993 81.8118 126.993 82.206ZM134.206 87V78.8182H136.134V87H134.206ZM135.175 77.657C134.87 77.657 134.607 77.5558 134.387 77.3533C134.167 77.1474 134.056 76.9006 134.056 76.6129C134.056 76.3217 134.167 76.0749 134.387 75.8725C134.607 75.6665 134.87 75.5636 135.175 75.5636C135.484 75.5636 135.747 75.6665 135.963 75.8725C136.184 76.0749 136.294 76.3217 136.294 76.6129C136.294 76.9006 136.184 77.1474 135.963 77.3533C135.747 77.5558 135.484 77.657 135.175 77.657ZM143.324 87H141.214L145.055 76.0909H147.494L151.34 87H149.231L146.317 78.3281H146.232L143.324 87ZM143.393 82.7227H149.146V84.31H143.393V82.7227ZM159.027 80.9808L157.269 81.1726C157.219 80.995 157.132 80.8281 157.008 80.6719C156.887 80.5156 156.724 80.3896 156.518 80.2937C156.312 80.1978 156.06 80.1499 155.761 80.1499C155.36 80.1499 155.023 80.2369 154.749 80.4109C154.479 80.5849 154.346 80.8104 154.35 81.0874C154.346 81.3253 154.433 81.5188 154.611 81.668C154.792 81.8171 155.09 81.9396 155.506 82.0355L156.901 82.3338C157.676 82.5007 158.251 82.7653 158.627 83.1275C159.007 83.4897 159.199 83.9638 159.203 84.5497C159.199 85.0646 159.048 85.5192 158.75 85.9134C158.455 86.304 158.045 86.6094 157.519 86.8295C156.994 87.0497 156.39 87.1598 155.708 87.1598C154.707 87.1598 153.901 86.9503 153.29 86.5312C152.679 86.1087 152.315 85.521 152.198 84.7681L154.078 84.587C154.163 84.9563 154.345 85.2351 154.622 85.4233C154.899 85.6115 155.259 85.7056 155.703 85.7056C156.161 85.7056 156.528 85.6115 156.805 85.4233C157.086 85.2351 157.226 85.0025 157.226 84.7255C157.226 84.4911 157.136 84.2976 156.955 84.1449C156.777 83.9922 156.5 83.875 156.124 83.7933L154.728 83.5004C153.943 83.337 153.363 83.0618 152.986 82.6747C152.61 82.2841 152.423 81.7905 152.427 81.1939C152.423 80.6896 152.56 80.2528 152.837 79.8835C153.118 79.5107 153.506 79.223 154.004 79.0206C154.504 78.8146 155.081 78.7116 155.735 78.7116C156.694 78.7116 157.448 78.9158 157.999 79.3242C158.553 79.7326 158.895 80.2848 159.027 80.9808ZM167.259 80.9808L165.501 81.1726C165.452 80.995 165.365 80.8281 165.24 80.6719C165.12 80.5156 164.956 80.3896 164.75 80.2937C164.544 80.1978 164.292 80.1499 163.994 80.1499C163.593 80.1499 163.255 80.2369 162.982 80.4109C162.712 80.5849 162.579 80.8104 162.582 81.0874C162.579 81.3253 162.666 81.5188 162.843 81.668C163.024 81.8171 163.323 81.9396 163.738 82.0355L165.134 82.3338C165.908 82.5007 166.483 82.7653 166.86 83.1275C167.24 83.4897 167.431 83.9638 167.435 84.5497C167.431 85.0646 167.28 85.5192 166.982 85.9134C166.687 86.304 166.277 86.6094 165.752 86.8295C165.226 87.0497 164.622 87.1598 163.941 87.1598C162.939 87.1598 162.133 86.9503 161.522 86.5312C160.911 86.1087 160.547 85.521 160.43 84.7681L162.311 84.587C162.396 84.9563 162.577 85.2351 162.854 85.4233C163.131 85.6115 163.491 85.7056 163.935 85.7056C164.393 85.7056 164.761 85.6115 165.038 85.4233C165.318 85.2351 165.459 85.0025 165.459 84.7255C165.459 84.4911 165.368 84.2976 165.187 84.1449C165.009 83.9922 164.733 83.875 164.356 83.7933L162.96 83.5004C162.176 83.337 161.595 83.0618 161.219 82.6747C160.842 82.2841 160.656 81.7905 160.659 81.1939C160.656 80.6896 160.793 80.2528 161.07 79.8835C161.35 79.5107 161.739 79.223 162.236 79.0206C162.737 78.8146 163.314 78.7116 163.967 78.7116C164.926 78.7116 165.681 78.9158 166.231 79.3242C166.785 79.7326 167.128 80.2848 167.259 80.9808ZM172.594 87.1598C171.795 87.1598 171.102 86.984 170.516 86.6325C169.93 86.2809 169.476 85.7891 169.153 85.157C168.833 84.5249 168.673 83.7862 168.673 82.9411C168.673 82.0959 168.833 81.3555 169.153 80.7198C169.476 80.0842 169.93 79.5906 170.516 79.239C171.102 78.8874 171.795 78.7116 172.594 78.7116C173.393 78.7116 174.085 78.8874 174.671 79.239C175.257 79.5906 175.71 80.0842 176.03 80.7198C176.353 81.3555 176.514 82.0959 176.514 82.9411C176.514 83.7862 176.353 84.5249 176.03 85.157C175.71 85.7891 175.257 86.2809 174.671 86.6325C174.085 86.984 173.393 87.1598 172.594 87.1598ZM172.604 85.6151C173.038 85.6151 173.4 85.4961 173.691 85.2582C173.982 85.0167 174.199 84.6935 174.341 84.2887C174.487 83.8839 174.559 83.4329 174.559 82.9357C174.559 82.435 174.487 81.9822 174.341 81.5774C174.199 81.169 173.982 80.8441 173.691 80.6026C173.4 80.3612 173.038 80.2404 172.604 80.2404C172.161 80.2404 171.791 80.3612 171.497 80.6026C171.205 80.8441 170.987 81.169 170.841 81.5774C170.699 81.9822 170.628 82.435 170.628 82.9357C170.628 83.4329 170.699 83.8839 170.841 84.2887C170.987 84.6935 171.205 85.0167 171.497 85.2582C171.791 85.4961 172.161 85.6151 172.604 85.6151ZM181.72 87.1598C180.903 87.1598 180.202 86.9805 179.616 86.6218C179.033 86.2631 178.584 85.7678 178.268 85.1357C177.956 84.5 177.799 83.7685 177.799 82.9411C177.799 82.1101 177.959 81.3768 178.279 80.7411C178.598 80.1019 179.049 79.6048 179.632 79.2496C180.218 78.891 180.91 78.7116 181.709 78.7116C182.373 78.7116 182.961 78.8342 183.472 79.0792C183.987 79.3207 184.397 79.6634 184.703 80.1072C185.008 80.5476 185.182 81.0625 185.225 81.652H183.382C183.307 81.2578 183.13 80.9293 182.849 80.6665C182.572 80.4002 182.201 80.267 181.736 80.267C181.342 80.267 180.995 80.3736 180.697 80.5866C180.399 80.7962 180.166 81.098 179.999 81.4922C179.836 81.8864 179.754 82.3587 179.754 82.9091C179.754 83.4666 179.836 83.946 179.999 84.3473C180.163 84.745 180.392 85.0522 180.686 85.2688C180.985 85.4819 181.335 85.5884 181.736 85.5884C182.02 85.5884 182.274 85.5352 182.498 85.4286C182.725 85.3185 182.915 85.1605 183.067 84.9545C183.22 84.7486 183.325 84.4982 183.382 84.2035H185.225C185.179 84.7823 185.008 85.2955 184.713 85.7429C184.419 86.1868 184.017 86.5348 183.51 86.7869C183.002 87.0355 182.405 87.1598 181.72 87.1598ZM186.808 87V78.8182H188.736V87H186.808ZM187.778 77.657C187.472 77.657 187.209 77.5558 186.989 77.3533C186.769 77.1474 186.659 76.9006 186.659 76.6129C186.659 76.3217 186.769 76.0749 186.989 75.8725C187.209 75.6665 187.472 75.5636 187.778 75.5636C188.087 75.5636 188.349 75.6665 188.566 75.8725C188.786 76.0749 188.896 76.3217 188.896 76.6129C188.896 76.9006 188.786 77.1474 188.566 77.3533C188.349 77.5558 188.087 77.657 187.778 77.657ZM193.074 87.1651C192.555 87.1651 192.088 87.0728 191.673 86.8881C191.261 86.6999 190.934 86.4229 190.693 86.0572C190.455 85.6914 190.336 85.2404 190.336 84.7042C190.336 84.2425 190.421 83.8608 190.591 83.5589C190.762 83.2571 190.994 83.0156 191.289 82.8345C191.584 82.6534 191.916 82.5167 192.285 82.4244C192.658 82.3285 193.044 82.2592 193.441 82.2166C193.921 82.1669 194.309 82.1225 194.608 82.0835C194.906 82.0408 195.123 81.9769 195.258 81.8917C195.396 81.8029 195.465 81.6662 195.465 81.4815V81.4496C195.465 81.0483 195.346 80.7376 195.108 80.5174C194.871 80.2972 194.528 80.1871 194.08 80.1871C193.608 80.1871 193.233 80.2901 192.956 80.4961C192.683 80.7021 192.498 80.9453 192.403 81.2259L190.602 80.9702C190.744 80.473 190.979 80.0575 191.305 79.7237C191.632 79.3864 192.031 79.1342 192.504 78.9673C192.976 78.7969 193.498 78.7116 194.07 78.7116C194.464 78.7116 194.856 78.7578 195.247 78.8501C195.638 78.9425 195.994 79.0952 196.318 79.3082C196.641 79.5178 196.9 79.8036 197.095 80.1658C197.294 80.5281 197.394 80.9808 197.394 81.5241V87H195.54V85.8761H195.476C195.359 86.1033 195.194 86.3164 194.981 86.5153C194.771 86.7106 194.507 86.8686 194.187 86.9893C193.871 87.1065 193.5 87.1651 193.074 87.1651ZM193.574 85.7482C193.961 85.7482 194.297 85.6719 194.581 85.5192C194.865 85.3629 195.084 85.157 195.236 84.9013C195.393 84.6456 195.471 84.3668 195.471 84.065V83.1009C195.41 83.1506 195.307 83.1967 195.162 83.2393C195.02 83.282 194.86 83.3192 194.682 83.3512C194.505 83.3832 194.329 83.4116 194.155 83.4364C193.981 83.4613 193.83 83.4826 193.702 83.5004C193.415 83.5394 193.157 83.6033 192.93 83.6921C192.703 83.7809 192.523 83.9052 192.392 84.065C192.26 84.2212 192.195 84.4237 192.195 84.6722C192.195 85.0273 192.324 85.2955 192.584 85.4766C192.843 85.6577 193.173 85.7482 193.574 85.7482ZM203.418 78.8182V80.3097H198.715V78.8182H203.418ZM199.876 76.858H201.804V84.5391C201.804 84.7983 201.843 84.9972 201.921 85.1357C202.003 85.2706 202.11 85.3629 202.241 85.4126C202.372 85.4624 202.518 85.4872 202.678 85.4872C202.798 85.4872 202.909 85.4783 203.008 85.4606C203.111 85.4428 203.189 85.4268 203.242 85.4126L203.567 86.9201C203.464 86.9556 203.317 86.9947 203.125 87.0373C202.937 87.0799 202.706 87.1048 202.433 87.1119C201.95 87.1261 201.515 87.0533 201.128 86.8935C200.741 86.7301 200.433 86.478 200.206 86.1371C199.982 85.7962 199.872 85.37 199.876 84.8587V76.858ZM205.031 87V78.8182H206.959V87H205.031ZM206 77.657C205.695 77.657 205.432 77.5558 205.212 77.3533C204.992 77.1474 204.882 76.9006 204.882 76.6129C204.882 76.3217 204.992 76.0749 205.212 75.8725C205.432 75.6665 205.695 75.5636 206 75.5636C206.309 75.5636 206.572 75.6665 206.789 75.8725C207.009 76.0749 207.119 76.3217 207.119 76.6129C207.119 76.9006 207.009 77.1474 206.789 77.3533C206.572 77.5558 206.309 77.657 206 77.657ZM212.511 87.1598C211.712 87.1598 211.019 86.984 210.433 86.6325C209.847 86.2809 209.393 85.7891 209.07 85.157C208.75 84.5249 208.59 83.7862 208.59 82.9411C208.59 82.0959 208.75 81.3555 209.07 80.7198C209.393 80.0842 209.847 79.5906 210.433 79.239C211.019 78.8874 211.712 78.7116 212.511 78.7116C213.31 78.7116 214.002 78.8874 214.588 79.239C215.174 79.5906 215.627 80.0842 215.947 80.7198C216.27 81.3555 216.431 82.0959 216.431 82.9411C216.431 83.7862 216.27 84.5249 215.947 85.157C215.627 85.7891 215.174 86.2809 214.588 86.6325C214.002 86.984 213.31 87.1598 212.511 87.1598ZM212.521 85.6151C212.955 85.6151 213.317 85.4961 213.608 85.2582C213.899 85.0167 214.116 84.6935 214.258 84.2887C214.404 83.8839 214.476 83.4329 214.476 82.9357C214.476 82.435 214.404 81.9822 214.258 81.5774C214.116 81.169 213.899 80.8441 213.608 80.6026C213.317 80.3612 212.955 80.2404 212.521 80.2404C212.078 80.2404 211.708 80.3612 211.414 80.6026C211.122 80.8441 210.904 81.169 210.758 81.5774C210.616 81.9822 210.545 82.435 210.545 82.9357C210.545 83.4329 210.616 83.8839 210.758 84.2887C210.904 84.6935 211.122 85.0167 211.414 85.2582C211.708 85.4961 212.078 85.6151 212.521 85.6151ZM219.996 82.206V87H218.068V78.8182H219.911V80.2085H220.007C220.195 79.7504 220.495 79.3864 220.907 79.1165C221.323 78.8466 221.836 78.7116 222.446 78.7116C223.011 78.7116 223.503 78.8324 223.922 79.0739C224.345 79.3153 224.671 79.6651 224.902 80.1232C225.136 80.5813 225.252 81.1371 225.248 81.7905V87H223.32V82.0888C223.32 81.5419 223.178 81.114 222.894 80.805C222.613 80.4961 222.225 80.3416 221.727 80.3416C221.39 80.3416 221.09 80.4162 220.827 80.5653C220.568 80.7109 220.364 80.9222 220.215 81.1992C220.069 81.4762 219.996 81.8118 219.996 82.206ZM229.472 85.5085L229.403 86.0945C229.353 86.5419 229.265 86.9964 229.137 87.4581C229.013 87.9233 228.881 88.3512 228.743 88.7418C228.604 89.1325 228.492 89.4396 228.407 89.6634H227.107C227.157 89.4467 227.225 89.152 227.31 88.7791C227.399 88.4063 227.484 87.9872 227.565 87.522C227.647 87.0568 227.702 86.5845 227.731 86.1051L227.768 85.5085H229.472ZM235.101 87V76.0909H237.078V85.3434H241.882V87H235.101ZM247.134 87.1598C246.314 87.1598 245.606 86.9893 245.009 86.6484C244.416 86.304 243.96 85.8175 243.64 85.1889C243.32 84.5568 243.161 83.8129 243.161 82.957C243.161 82.1154 243.32 81.3768 243.64 80.7411C243.963 80.1019 244.414 79.6048 244.993 79.2496C245.572 78.891 246.252 78.7116 247.033 78.7116C247.537 78.7116 248.013 78.7933 248.461 78.9567C248.912 79.1165 249.309 79.3651 249.654 79.7024C250.002 80.0398 250.275 80.4695 250.474 80.9915C250.673 81.5099 250.773 82.1278 250.773 82.8452V83.4364H244.066V82.1367H248.924C248.921 81.7674 248.841 81.4389 248.684 81.1513C248.528 80.8601 248.31 80.631 248.029 80.4641C247.752 80.2972 247.429 80.2138 247.06 80.2138C246.666 80.2138 246.319 80.3097 246.021 80.5014C245.723 80.6896 245.49 80.9382 245.323 81.2472C245.16 81.5526 245.077 81.8881 245.073 82.2539V83.3885C245.073 83.8643 245.16 84.2727 245.334 84.6136C245.508 84.951 245.751 85.2102 246.064 85.3913C246.376 85.5689 246.742 85.6577 247.161 85.6577C247.442 85.6577 247.695 85.6186 247.923 85.5405C248.15 85.4588 248.347 85.3398 248.514 85.1836C248.681 85.0273 248.807 84.8338 248.892 84.603L250.693 84.8054C250.579 85.2812 250.362 85.6967 250.043 86.0518C249.727 86.4034 249.322 86.6768 248.828 86.8722C248.335 87.0639 247.77 87.1598 247.134 87.1598ZM254.758 87.1651C254.24 87.1651 253.773 87.0728 253.357 86.8881C252.945 86.6999 252.619 86.4229 252.377 86.0572C252.139 85.6914 252.02 85.2404 252.02 84.7042C252.02 84.2425 252.106 83.8608 252.276 83.5589C252.446 83.2571 252.679 83.0156 252.974 82.8345C253.269 82.6534 253.601 82.5167 253.97 82.4244C254.343 82.3285 254.728 82.2592 255.126 82.2166C255.605 82.1669 255.994 82.1225 256.292 82.0835C256.591 82.0408 256.807 81.9769 256.942 81.8917C257.081 81.8029 257.15 81.6662 257.15 81.4815V81.4496C257.15 81.0483 257.031 80.7376 256.793 80.5174C256.555 80.2972 256.212 80.1871 255.765 80.1871C255.293 80.1871 254.918 80.2901 254.641 80.4961C254.368 80.7021 254.183 80.9453 254.087 81.2259L252.287 80.9702C252.429 80.473 252.663 80.0575 252.99 79.7237C253.316 79.3864 253.716 79.1342 254.188 78.9673C254.661 78.7969 255.183 78.7116 255.754 78.7116C256.149 78.7116 256.541 78.7578 256.932 78.8501C257.322 78.9425 257.679 79.0952 258.002 79.3082C258.325 79.5178 258.585 79.8036 258.78 80.1658C258.979 80.5281 259.078 80.9808 259.078 81.5241V87H257.225V85.8761H257.161C257.043 86.1033 256.878 86.3164 256.665 86.5153C256.456 86.7106 256.191 86.8686 255.872 86.9893C255.555 87.1065 255.184 87.1651 254.758 87.1651ZM255.259 85.7482C255.646 85.7482 255.982 85.6719 256.266 85.5192C256.55 85.3629 256.768 85.157 256.921 84.9013C257.077 84.6456 257.155 84.3668 257.155 84.065V83.1009C257.095 83.1506 256.992 83.1967 256.846 83.2393C256.704 83.282 256.544 83.3192 256.367 83.3512C256.189 83.3832 256.014 83.4116 255.84 83.4364C255.666 83.4613 255.515 83.4826 255.387 83.5004C255.099 83.5394 254.842 83.6033 254.614 83.6921C254.387 83.7809 254.208 83.9052 254.076 84.065C253.945 84.2212 253.879 84.4237 253.879 84.6722C253.879 85.0273 254.009 85.2955 254.268 85.4766C254.527 85.6577 254.858 85.7482 255.259 85.7482ZM264.053 87.1438C263.411 87.1438 262.835 86.9787 262.328 86.6484C261.82 86.3182 261.418 85.8388 261.124 85.2102C260.829 84.5817 260.682 83.8182 260.682 82.9197C260.682 82.0107 260.831 81.2436 261.129 80.6186C261.431 79.9901 261.837 79.516 262.349 79.1964C262.86 78.8732 263.43 78.7116 264.059 78.7116C264.538 78.7116 264.932 78.7933 265.241 78.9567C265.55 79.1165 265.795 79.31 265.976 79.5373C266.157 79.761 266.298 79.9723 266.397 80.1712H266.477V76.0909H268.411V87H266.514V85.7109H266.397C266.298 85.9098 266.154 86.1211 265.966 86.3448C265.777 86.565 265.529 86.7532 265.22 86.9094C264.911 87.0657 264.522 87.1438 264.053 87.1438ZM264.591 85.5618C265 85.5618 265.348 85.4517 265.635 85.2315C265.923 85.0078 266.141 84.6971 266.291 84.2994C266.44 83.9016 266.514 83.4382 266.514 82.9091C266.514 82.38 266.44 81.9201 266.291 81.5295C266.145 81.1388 265.928 80.8352 265.641 80.6186C265.357 80.402 265.007 80.2937 264.591 80.2937C264.162 80.2937 263.803 80.4055 263.515 80.6293C263.228 80.853 263.011 81.1619 262.866 81.5561C262.72 81.9503 262.647 82.4013 262.647 82.9091C262.647 83.4205 262.72 83.8768 262.866 84.2781C263.015 84.6758 263.233 84.9901 263.521 85.2209C263.812 85.4482 264.169 85.5618 264.591 85.5618ZM270.465 87V78.8182H272.394V87H270.465ZM271.435 77.657C271.129 77.657 270.867 77.5558 270.646 77.3533C270.426 77.1474 270.316 76.9006 270.316 76.6129C270.316 76.3217 270.426 76.0749 270.646 75.8725C270.867 75.6665 271.129 75.5636 271.435 75.5636C271.744 75.5636 272.007 75.6665 272.223 75.8725C272.443 76.0749 272.553 76.3217 272.553 76.6129C272.553 76.9006 272.443 77.1474 272.223 77.3533C272.007 77.5558 271.744 77.657 271.435 77.657ZM276.305 82.206V87H274.377V78.8182H276.22V80.2085H276.315C276.504 79.7504 276.804 79.3864 277.216 79.1165C277.631 78.8466 278.144 78.7116 278.755 78.7116C279.32 78.7116 279.812 78.8324 280.231 79.0739C280.653 79.3153 280.98 79.6651 281.211 80.1232C281.445 80.5813 281.56 81.1371 281.557 81.7905V87H279.629V82.0888C279.629 81.5419 279.487 81.114 279.203 80.805C278.922 80.4961 278.533 80.3416 278.036 80.3416C277.699 80.3416 277.399 80.4162 277.136 80.5653C276.877 80.7109 276.672 80.9222 276.523 81.1992C276.378 81.4762 276.305 81.8118 276.305 82.206ZM287.075 90.2386C286.383 90.2386 285.788 90.1445 285.291 89.9563C284.794 89.7717 284.394 89.5231 284.092 89.2106C283.791 88.8981 283.581 88.5518 283.464 88.1719L285.2 87.7511C285.278 87.9109 285.392 88.0689 285.541 88.2251C285.69 88.3849 285.891 88.5163 286.143 88.6193C286.399 88.7259 286.72 88.7791 287.107 88.7791C287.654 88.7791 288.107 88.646 288.466 88.3796C288.824 88.1168 289.004 87.6836 289.004 87.0799V85.5298H288.908C288.808 85.7287 288.663 85.9329 288.471 86.1424C288.283 86.3519 288.032 86.5277 287.72 86.6697C287.411 86.8118 287.022 86.8828 286.553 86.8828C285.925 86.8828 285.355 86.7354 284.843 86.4407C284.336 86.1424 283.931 85.6985 283.629 85.109C283.331 84.516 283.182 83.7738 283.182 82.8825C283.182 81.984 283.331 81.2259 283.629 80.608C283.931 79.9865 284.337 79.516 284.849 79.1964C285.36 78.8732 285.93 78.7116 286.559 78.7116C287.038 78.7116 287.432 78.7933 287.741 78.9567C288.054 79.1165 288.302 79.31 288.487 79.5373C288.672 79.761 288.812 79.9723 288.908 80.1712H289.014V78.8182H290.916V87.1332C290.916 87.8327 290.749 88.4116 290.415 88.8697C290.081 89.3278 289.625 89.6705 289.046 89.8977C288.467 90.125 287.81 90.2386 287.075 90.2386ZM287.091 85.37C287.5 85.37 287.848 85.2706 288.135 85.0717C288.423 84.8729 288.641 84.587 288.791 84.2141C288.94 83.8413 289.014 83.3938 289.014 82.8718C289.014 82.3569 288.94 81.9059 288.791 81.5188C288.645 81.1317 288.428 80.8317 288.141 80.6186C287.857 80.402 287.507 80.2937 287.091 80.2937C286.662 80.2937 286.303 80.4055 286.015 80.6293C285.728 80.853 285.511 81.1602 285.366 81.5508C285.22 81.9379 285.147 82.3782 285.147 82.8718C285.147 83.3725 285.22 83.8111 285.366 84.1875C285.515 84.5604 285.733 84.8516 286.021 85.0611C286.312 85.267 286.669 85.37 287.091 85.37ZM303.575 76.0909H305.551V83.218C305.551 83.9993 305.366 84.6864 304.997 85.2795C304.631 85.8725 304.116 86.3359 303.452 86.6697C302.788 87 302.012 87.1651 301.125 87.1651C300.233 87.1651 299.456 87 298.791 86.6697C298.127 86.3359 297.612 85.8725 297.247 85.2795C296.881 84.6864 296.698 83.9993 296.698 83.218V76.0909H298.674V83.0529C298.674 83.5075 298.774 83.9123 298.973 84.2674C299.175 84.6225 299.459 84.9013 299.825 85.1037C300.191 85.3026 300.624 85.402 301.125 85.402C301.625 85.402 302.059 85.3026 302.424 85.1037C302.794 84.9013 303.078 84.6225 303.277 84.2674C303.475 83.9123 303.575 83.5075 303.575 83.0529V76.0909ZM309.542 82.206V87H307.614V78.8182H309.457V80.2085H309.553C309.741 79.7504 310.041 79.3864 310.453 79.1165C310.868 78.8466 311.382 78.7116 311.992 78.7116C312.557 78.7116 313.049 78.8324 313.468 79.0739C313.89 79.3153 314.217 79.6651 314.448 80.1232C314.682 80.5813 314.798 81.1371 314.794 81.7905V87H312.866V82.0888C312.866 81.5419 312.724 81.114 312.44 80.805C312.159 80.4961 311.77 80.3416 311.273 80.3416C310.936 80.3416 310.636 80.4162 310.373 80.5653C310.114 80.7109 309.91 80.9222 309.76 81.1992C309.615 81.4762 309.542 81.8118 309.542 82.206ZM316.754 87V78.8182H318.683V87H316.754ZM317.724 77.657C317.419 77.657 317.156 77.5558 316.936 77.3533C316.715 77.1474 316.605 76.9006 316.605 76.6129C316.605 76.3217 316.715 76.0749 316.936 75.8725C317.156 75.6665 317.419 75.5636 317.724 75.5636C318.033 75.5636 318.296 75.6665 318.512 75.8725C318.732 76.0749 318.843 76.3217 318.843 76.6129C318.843 76.9006 318.732 77.1474 318.512 77.3533C318.296 77.5558 318.033 77.657 317.724 77.657ZM327.974 78.8182L325.06 87H322.929L320.016 78.8182H322.072L323.952 84.896H324.037L325.923 78.8182H327.974ZM332.652 87.1598C331.832 87.1598 331.123 86.9893 330.527 86.6484C329.934 86.304 329.477 85.8175 329.158 85.1889C328.838 84.5568 328.678 83.8129 328.678 82.957C328.678 82.1154 328.838 81.3768 329.158 80.7411C329.481 80.1019 329.932 79.6048 330.511 79.2496C331.089 78.891 331.77 78.7116 332.551 78.7116C333.055 78.7116 333.531 78.7933 333.978 78.9567C334.429 79.1165 334.827 79.3651 335.172 79.7024C335.52 80.0398 335.793 80.4695 335.992 80.9915C336.191 81.5099 336.29 82.1278 336.29 82.8452V83.4364H329.584V82.1367H334.442C334.438 81.7674 334.358 81.4389 334.202 81.1513C334.046 80.8601 333.827 80.631 333.547 80.4641C333.27 80.2972 332.947 80.2138 332.577 80.2138C332.183 80.2138 331.837 80.3097 331.539 80.5014C331.24 80.6896 331.008 80.9382 330.841 81.2472C330.678 81.5526 330.594 81.8881 330.591 82.2539V83.3885C330.591 83.8643 330.678 84.2727 330.852 84.6136C331.026 84.951 331.269 85.2102 331.581 85.3913C331.894 85.5689 332.26 85.6577 332.679 85.6577C332.959 85.6577 333.213 85.6186 333.44 85.5405C333.668 85.4588 333.865 85.3398 334.032 85.1836C334.199 85.0273 334.325 84.8338 334.41 84.603L336.21 84.8054C336.097 85.2812 335.88 85.6967 335.56 86.0518C335.244 86.4034 334.839 86.6768 334.346 86.8722C333.852 87.0639 333.288 87.1598 332.652 87.1598ZM337.921 87V78.8182H339.791V80.1818H339.876C340.025 79.7095 340.281 79.3455 340.643 79.0898C341.009 78.8306 341.426 78.701 341.895 78.701C342.002 78.701 342.121 78.7063 342.252 78.717C342.387 78.7241 342.499 78.7365 342.588 78.7543V80.5281C342.506 80.4996 342.376 80.4748 342.199 80.4535C342.025 80.4286 341.856 80.4162 341.693 80.4162C341.341 80.4162 341.025 80.4925 340.745 80.6452C340.468 80.7944 340.249 81.0021 340.089 81.2685C339.93 81.5348 339.85 81.842 339.85 82.19V87H337.921ZM350.335 80.9808L348.578 81.1726C348.528 80.995 348.441 80.8281 348.316 80.6719C348.196 80.5156 348.032 80.3896 347.826 80.2937C347.62 80.1978 347.368 80.1499 347.07 80.1499C346.669 80.1499 346.331 80.2369 346.058 80.4109C345.788 80.5849 345.655 80.8104 345.658 81.0874C345.655 81.3253 345.742 81.5188 345.919 81.668C346.101 81.8171 346.399 81.9396 346.814 82.0355L348.21 82.3338C348.984 82.5007 349.559 82.7653 349.936 83.1275C350.316 83.4897 350.508 83.9638 350.511 84.5497C350.508 85.0646 350.357 85.5192 350.058 85.9134C349.764 86.304 349.353 86.6094 348.828 86.8295C348.302 87.0497 347.699 87.1598 347.017 87.1598C346.015 87.1598 345.209 86.9503 344.598 86.5312C343.988 86.1087 343.624 85.521 343.506 84.7681L345.387 84.587C345.472 84.9563 345.653 85.2351 345.93 85.4233C346.207 85.6115 346.568 85.7056 347.011 85.7056C347.47 85.7056 347.837 85.6115 348.114 85.4233C348.395 85.2351 348.535 85.0025 348.535 84.7255C348.535 84.4911 348.444 84.2976 348.263 84.1449C348.086 83.9922 347.809 83.875 347.432 83.7933L346.037 83.5004C345.252 83.337 344.671 83.0618 344.295 82.6747C343.918 82.2841 343.732 81.7905 343.736 81.1939C343.732 80.6896 343.869 80.2528 344.146 79.8835C344.426 79.5107 344.815 79.223 345.312 79.0206C345.813 78.8146 346.39 78.7116 347.043 78.7116C348.002 78.7116 348.757 78.9158 349.307 79.3242C349.861 79.7326 350.204 80.2848 350.335 80.9808ZM352.101 87V78.8182H354.029V87H352.101ZM353.071 77.657C352.765 77.657 352.502 77.5558 352.282 77.3533C352.062 77.1474 351.952 76.9006 351.952 76.6129C351.952 76.3217 352.062 76.0749 352.282 75.8725C352.502 75.6665 352.765 75.5636 353.071 75.5636C353.38 75.5636 353.642 75.6665 353.859 75.8725C354.079 76.0749 354.189 76.3217 354.189 76.6129C354.189 76.9006 354.079 77.1474 353.859 77.3533C353.642 77.5558 353.38 77.657 353.071 77.657ZM360.098 78.8182V80.3097H355.394V78.8182H360.098ZM356.556 76.858H358.484V84.5391C358.484 84.7983 358.523 84.9972 358.601 85.1357C358.683 85.2706 358.789 85.3629 358.921 85.4126C359.052 85.4624 359.198 85.4872 359.357 85.4872C359.478 85.4872 359.588 85.4783 359.688 85.4606C359.791 85.4428 359.869 85.4268 359.922 85.4126L360.247 86.9201C360.144 86.9556 359.997 86.9947 359.805 87.0373C359.617 87.0799 359.386 87.1048 359.112 87.1119C358.629 87.1261 358.194 87.0533 357.807 86.8935C357.42 86.7301 357.113 86.478 356.886 86.1371C356.662 85.7962 356.552 85.37 356.556 84.8587V76.858ZM362.909 90.0682C362.646 90.0682 362.403 90.0469 362.179 90.0043C361.959 89.9652 361.783 89.919 361.652 89.8658L362.099 88.3636C362.38 88.4453 362.63 88.4844 362.85 88.4808C363.071 88.4773 363.264 88.408 363.431 88.2731C363.601 88.1417 363.745 87.9215 363.862 87.6126L364.028 87.1705L361.061 78.8182H363.106L364.992 84.9972H365.077L366.968 78.8182H369.019L365.743 87.9908C365.59 88.424 365.388 88.7951 365.136 89.104C364.883 89.4165 364.574 89.6545 364.209 89.8178C363.847 89.9847 363.413 90.0682 362.909 90.0682Z" fill="black"/>
</g>
<defs>
<clipPath id="clip0_1_2">
<rect width="837.5" height="606.999" fill="white"/>
</clipPath>
</defs>
</svg>
